<svg width="495" height="495" viewBox="0 0 495 495" fill="none" xmlns="http://www.w3.org/2000/svg">
<path fill-rule="evenodd" clip-rule="evenodd" d="M121.926 37.2355C104.338 39.6275 93.0031 42.8575 80.9261 48.9205C69.5691 54.6215 62.2361 59.8435 52.5941 69.0985C31.8741 88.9845 17.0571 116.779 11.7741 145.667C9.19913 159.749 9.46111 183.905 12.3391 197.667C15.2841 211.754 20.9661 228.457 28.0691 243.909L33.9261 256.65L114.176 256.659L194.426 256.667V311.224C194.426 365.409 194.413 365.771 192.445 364.393C180.864 356.281 129.091 305.898 116.426 290.415L110.926 283.691L82.1171 283.679C59.3441 283.669 53.4611 283.929 54.0401 284.917C56.1401 288.504 67.4991 304.112 72.7781 310.667C95.6011 339 132.522 375.498 168.426 405.22C182.203 416.624 193.451 425.183 217.37 442.46L239.926 458.754L240.183 335.46C240.325 267.649 240.226 211.605 239.965 210.917C239.589 209.93 220.991 209.667 151.603 209.667H63.7171L61.5621 202.406C57.3621 188.258 56.1381 179.03 56.7571 166.167C57.9531 141.31 66.7061 121.049 83.3251 104.667C92.9791 95.1505 101.549 89.6725 111.926 86.3845C121.256 83.4285 141.378 83.2675 151.842 86.0665C165.554 89.7345 181.806 98.0635 189.676 105.458L192.426 108.041V145.854V183.667H215.426H238.426V135.854V88.0405L229.907 79.4065C209.261 58.4795 183.43 44.5385 155.477 39.2355C147.115 37.6495 127.489 36.4795 121.926 37.2355ZM343.523 40.2785C332.922 42.0545 316.978 47.3615 306.673 52.5425C295.223 58.2995 279.385 69.2045 268.426 78.8775L258.926 87.2615L258.67 172.958L258.415 258.654L332.053 258.911L405.692 259.167L397.899 269.667C376.521 298.472 342.304 334.179 311.676 359.644L305.426 364.84V325.254V285.667H281.926H258.426V372.167C258.426 419.742 258.674 458.667 258.978 458.667C259.888 458.667 313.079 418.759 324.926 409.186C386.139 359.729 434.907 305.567 460.031 259.139C462.701 254.204 468.098 241.842 472.024 231.667L479.162 213.167L392.285 212.912L305.408 212.656L305.667 160.496L305.926 108.336L313.926 102.924C324.195 95.9765 338.1 89.3235 346.632 87.2765C355.19 85.2215 370.805 85.1915 378.612 87.2145C401.194 93.0665 420.333 109.643 432.821 134.167C439.171 146.637 441.519 156.254 442.161 172.417L442.687 185.667H464.037H485.388L486.041 183.064C487.113 178.795 485.668 152.743 483.913 144.667C475.066 103.977 449.116 69.0075 414.707 51.4105C392.67 40.1395 367.674 36.2315 343.523 40.2785Z" fill="#3C49EC"/>
</svg>
