<svg width="128" height="99" viewBox="0 0 128 99" fill="none" xmlns="http://www.w3.org/2000/svg">
<path fill-rule="evenodd" clip-rule="evenodd" d="M21.2959 1.31606C15.3699 3.16906 10.6249 6.32806 6.1769 11.3811C0.208903 18.1621 -1.5451 26.8791 1.3989 35.1291C4.6219 44.1611 11.1579 48.8161 29.5989 55.2121C48.4339 61.7441 56.6319 66.9891 61.0629 75.3431C62.3859 77.8361 63.6969 79.8771 63.9759 79.8771C64.2549 79.8771 65.0469 78.6031 65.7359 77.0471C69.5509 68.4291 79.0189 62.0171 97.4719 55.5551C115.729 49.1611 121.522 45.6401 125 38.8221C129.825 29.3641 128.475 18.8771 121.422 11.0331C116.062 5.07106 100.972 -2.43694 100.972 0.858058C100.972 1.41806 101.541 1.87706 102.235 1.87706C104.658 1.87706 113.765 8.80606 115.916 12.2871C119.004 17.2831 119.03 24.7101 115.974 29.1691C112.672 33.9881 107.295 37.0711 93.0779 42.2991C77.9919 47.8461 73.3899 50.4601 68.0709 56.5021L63.9719 61.1591L59.8729 56.5021C54.5659 50.4731 49.9029 47.8171 34.8449 42.2501C28.0569 39.7401 21.3379 37.0831 19.9129 36.3461C16.1519 34.4021 9.9949 27.2411 9.8329 24.6241C9.5309 19.7321 10.1329 15.4661 11.4979 12.8261C13.3069 9.32906 19.4799 4.19106 23.7219 2.65306C25.5099 2.00506 26.9719 1.11606 26.9719 0.676057C26.9719 -0.340943 26.3869 -0.274944 21.2959 1.31606ZM38.9719 2.30906C43.2329 3.88106 47.6079 6.51706 51.6849 9.96706C54.8979 12.6861 61.2279 21.1401 62.2879 24.1271C63.2659 26.8821 64.2689 26.2371 67.2429 20.9411C70.9119 14.4091 80.9929 5.39706 87.3809 2.94006C95.1729 -0.0579431 89.5099 0.490057 80.7839 3.57806C73.1799 6.26906 73.0719 6.27806 70.9729 4.37806C68.2579 1.92106 67.6559 2.84306 66.0289 11.9441C65.3489 15.7541 64.4439 19.0851 64.0189 19.3481C63.5939 19.6111 62.6789 16.5121 61.9869 12.4621C60.3779 3.06106 59.7089 1.90006 57.2039 4.16706C55.1679 6.01006 51.9549 6.40906 50.4219 5.01006C49.0199 3.73006 39.9409 0.866057 37.5439 0.947057C36.0999 0.997057 36.5329 1.40906 38.9719 2.30906ZM5.6389 68.5441C4.8519 69.3311 4.7239 94.8771 5.5069 94.8771C5.8019 94.8771 7.1089 94.1781 8.4119 93.3241C10.6039 91.8881 11.2209 91.9551 16.6269 94.2101C19.8419 95.5511 24.0469 96.9581 25.9719 97.3371C27.8969 97.7161 30.2599 98.2481 31.2219 98.5191C34.6039 99.4711 32.9229 97.3481 28.3919 94.9441C22.3119 91.7181 13.5579 81.8911 9.8569 74.1361C6.7019 67.5261 6.6829 67.5001 5.6389 68.5441ZM117.661 74.7591C113.954 82.4811 105.985 91.2881 99.2809 95.0721C96.3109 96.7481 94.0609 98.2991 94.2809 98.5191C95.0419 99.2801 105.498 96.6341 111.317 94.2081C116.723 91.9551 117.34 91.8881 119.532 93.3241C120.835 94.1781 122.142 94.8771 122.437 94.8771C122.731 94.8771 122.972 89.0271 122.972 81.8771C122.972 66.8201 122.059 65.5971 117.661 74.7591Z" fill="#3C49EC"/>
</svg>
